<svg width="1011" height="317" viewBox="0 0 1011 317" fill="none" xmlns="http://www.w3.org/2000/svg">
<path d="M121.636 139.53C120.848 136.318 119.606 133.5 117.909 131.076C116.212 128.591 114.091 126.5 111.545 124.803C109.061 123.045 106.152 121.742 102.818 120.894C99.5455 119.985 95.9394 119.53 92 119.53C83.5152 119.53 76.2727 121.56 70.2727 125.621C64.3333 129.682 59.7879 135.53 56.6364 143.167C53.5455 150.803 52 160.015 52 170.803C52 181.712 53.4848 191.045 56.4545 198.803C59.4242 206.561 63.8485 212.5 69.7273 216.621C75.6061 220.742 82.9091 222.803 91.6364 222.803C99.3333 222.803 105.727 221.682 110.818 219.439C115.97 217.197 119.818 214.015 122.364 209.894C124.909 205.773 126.182 200.924 126.182 195.348L134.909 196.257H92.3636V160.257H174.909V186.076C174.909 203.045 171.303 217.561 164.091 229.621C156.939 241.621 147.061 250.833 134.455 257.258C121.909 263.621 107.515 266.803 91.2727 266.803C73.1515 266.803 57.2424 262.955 43.5455 255.258C29.8485 247.561 19.1515 236.591 11.4545 222.348C3.81818 208.106 0 191.167 0 171.53C0 156.136 2.33333 142.5 7 130.621C11.7273 118.742 18.2727 108.712 26.6364 100.53C35 92.2878 44.6667 86.0756 55.6364 81.8938C66.6061 77.6514 78.3636 75.5302 90.9091 75.5302C101.939 75.5302 112.182 77.1059 121.636 80.2575C131.152 83.3484 139.545 87.7726 146.818 93.5302C154.152 99.2272 160.061 105.985 164.545 113.803C169.03 121.621 171.758 130.197 172.727 139.53H121.636Z" fill="url(#paint0_linear_20_90)"/>
<path d="M220.194 266.44C211.285 266.44 203.406 264.985 196.557 262.076C189.769 259.106 184.436 254.622 180.557 248.622C176.678 242.622 174.739 234.985 174.739 225.712C174.739 218.076 176.042 211.561 178.648 206.167C181.254 200.712 184.891 196.257 189.557 192.803C194.224 189.348 199.648 186.712 205.83 184.894C212.072 183.076 218.8 181.894 226.012 181.348C233.83 180.742 240.103 180.015 244.83 179.167C249.618 178.257 253.072 177.015 255.194 175.439C257.315 173.803 258.375 171.651 258.375 168.985V168.621C258.375 164.985 256.982 162.197 254.194 160.257C251.406 158.318 247.83 157.348 243.466 157.348C238.678 157.348 234.769 158.409 231.739 160.53C228.769 162.591 226.982 165.773 226.375 170.076H180.194C180.8 161.591 183.497 153.773 188.285 146.621C193.133 139.409 200.194 133.651 209.466 129.348C218.739 124.985 230.315 122.803 244.194 122.803C254.194 122.803 263.163 123.985 271.103 126.348C279.042 128.651 285.8 131.894 291.375 136.076C296.951 140.197 301.194 145.045 304.103 150.621C307.072 156.136 308.557 162.136 308.557 168.621V264.258H261.648V244.622H260.557C257.769 249.834 254.375 254.046 250.375 257.258C246.436 260.47 241.921 262.803 236.83 264.258C231.8 265.712 226.254 266.44 220.194 266.44ZM236.557 234.803C240.375 234.803 243.951 234.015 247.285 232.439C250.678 230.864 253.436 228.591 255.557 225.621C257.678 222.651 258.739 219.045 258.739 214.803V203.167C257.406 203.712 255.982 204.227 254.466 204.712C253.012 205.197 251.436 205.651 249.739 206.076C248.103 206.5 246.345 206.894 244.466 207.257C242.648 207.621 240.739 207.954 238.739 208.257C234.86 208.864 231.678 209.864 229.194 211.258C226.769 212.591 224.951 214.258 223.739 216.258C222.588 218.197 222.012 220.379 222.012 222.803C222.012 226.682 223.375 229.652 226.103 231.712C228.83 233.773 232.315 234.803 236.557 234.803Z" fill="url(#paint1_linear_20_90)"/>
<path d="M397.887 124.621V160.985H305.887V124.621H397.887ZM323.705 91.1665H375.823L373.887 219.348C373.887 221.288 374.221 222.924 374.887 224.258C375.554 225.53 376.584 226.5 377.978 227.167C379.372 227.773 381.16 228.076 383.342 228.076C384.857 228.076 386.615 227.894 388.615 227.53C390.675 227.167 392.19 226.864 393.16 226.621L400.433 261.894C398.19 262.561 394.978 263.379 390.796 264.349C386.675 265.318 381.766 265.955 376.069 266.258C364.554 266.864 354.887 265.682 347.069 262.712C339.251 259.682 333.372 254.925 329.433 248.44C325.493 241.955 323.584 233.833 323.705 224.076V91.1665Z" fill="url(#paint2_linear_20_90)"/>
<path d="M465.854 266.803C450.945 266.803 438.096 263.955 427.308 258.258C416.581 252.5 408.308 244.258 402.49 233.53C396.732 222.742 393.854 209.833 393.854 194.803C393.854 180.379 396.763 167.773 402.581 156.985C408.399 146.197 416.611 137.803 427.217 131.803C437.823 125.803 450.338 122.803 464.763 122.803C475.308 122.803 484.854 124.439 493.399 127.712C501.945 130.985 509.248 135.742 515.308 141.985C521.369 148.167 526.035 155.682 529.308 164.53C532.581 173.379 534.217 183.348 534.217 194.439V206.076H409.49V178.439H488.035C487.975 174.439 486.945 170.924 484.945 167.894C483.005 164.803 480.369 162.409 477.035 160.712C473.763 158.954 470.035 158.076 465.854 158.076C461.793 158.076 458.066 158.954 454.672 160.712C451.278 162.409 448.551 164.773 446.49 167.803C444.49 170.833 443.429 174.379 443.308 178.439V208.257C443.308 212.742 444.248 216.742 446.126 220.258C448.005 223.773 450.702 226.53 454.217 228.53C457.732 230.53 461.975 231.53 466.945 231.53C470.399 231.53 473.551 231.045 476.399 230.076C479.308 229.106 481.793 227.712 483.854 225.894C485.914 224.015 487.429 221.773 488.399 219.167H534.217C532.641 228.864 528.914 237.288 523.035 244.44C517.157 251.531 509.369 257.046 499.672 260.985C490.035 264.864 478.763 266.803 465.854 266.803Z" fill="url(#paint3_linear_20_90)"/>
<path d="M559.752 264.258L524.843 124.621H575.025L591.025 209.712H592.115L609.934 124.621H658.661L677.206 208.985H678.297L693.57 124.621H743.752L708.843 264.258H654.661L635.025 189.348H633.57L613.934 264.258H559.752Z" fill="url(#paint4_linear_20_90)"/>
<path d="M780.014 266.44C771.105 266.44 763.226 264.985 756.377 262.076C749.589 259.106 744.256 254.622 740.377 248.622C736.498 242.622 734.559 234.985 734.559 225.712C734.559 218.076 735.862 211.561 738.468 206.167C741.074 200.712 744.711 196.257 749.377 192.803C754.044 189.348 759.468 186.712 765.65 184.894C771.892 183.076 778.62 181.894 785.832 181.348C793.65 180.742 799.923 180.015 804.65 179.167C809.438 178.257 812.892 177.015 815.014 175.439C817.135 173.803 818.195 171.651 818.195 168.985V168.621C818.195 164.985 816.802 162.197 814.014 160.257C811.226 158.318 807.65 157.348 803.286 157.348C798.498 157.348 794.589 158.409 791.559 160.53C788.589 162.591 786.802 165.773 786.195 170.076H740.014C740.62 161.591 743.317 153.773 748.105 146.621C752.953 139.409 760.014 133.651 769.286 129.348C778.559 124.985 790.135 122.803 804.014 122.803C814.014 122.803 822.983 123.985 830.923 126.348C838.862 128.651 845.62 131.894 851.195 136.076C856.771 140.197 861.014 145.045 863.923 150.621C866.892 156.136 868.377 162.136 868.377 168.621V264.258H821.468V244.622H820.377C817.589 249.834 814.195 254.046 810.195 257.258C806.256 260.47 801.741 262.803 796.65 264.258C791.62 265.712 786.074 266.44 780.014 266.44ZM796.377 234.803C800.195 234.803 803.771 234.015 807.105 232.439C810.498 230.864 813.256 228.591 815.377 225.621C817.498 222.651 818.559 219.045 818.559 214.803V203.167C817.226 203.712 815.802 204.227 814.286 204.712C812.832 205.197 811.256 205.651 809.559 206.076C807.923 206.5 806.165 206.894 804.286 207.257C802.468 207.621 800.559 207.954 798.559 208.257C794.68 208.864 791.499 209.864 789.014 211.258C786.589 212.591 784.771 214.258 783.559 216.258C782.408 218.197 781.832 220.379 781.832 222.803C781.832 226.682 783.195 229.652 785.923 231.712C788.65 233.773 792.135 234.803 796.377 234.803Z" fill="url(#paint5_linear_20_90)"/>
<path d="M899.98 316.621C894.222 316.621 888.738 316.167 883.525 315.258C878.313 314.409 873.738 313.227 869.798 311.712L880.707 276.076C884.828 277.53 888.586 278.47 891.98 278.894C895.435 279.318 898.374 279.076 900.798 278.167C903.283 277.258 905.071 275.53 906.162 272.985L907.253 270.44L858.162 124.621H910.525L933.071 221.348H934.525L957.435 124.621H1010.16L959.253 275.894C956.707 283.591 953.01 290.5 948.162 296.621C943.374 302.803 937.071 307.682 929.253 311.258C921.435 314.833 911.677 316.621 899.98 316.621Z" fill="url(#paint6_linear_20_90)"/>
<path d="M512.178 99.5152V6.42432H552.36C559.269 6.42432 565.314 7.68189 570.496 10.197C575.678 12.7122 579.708 16.3334 582.587 21.0607C585.466 25.788 586.905 31.4546 586.905 38.0607C586.905 44.7273 585.42 50.3486 582.45 54.9243C579.511 59.5001 575.375 62.9546 570.041 65.288C564.738 67.6213 558.541 68.788 551.45 68.788H527.45V49.1516H546.36C549.329 49.1516 551.86 48.788 553.95 48.0607C556.072 47.3031 557.693 46.1061 558.814 44.4698C559.966 42.8334 560.541 40.697 560.541 38.0607C560.541 35.394 559.966 33.2274 558.814 31.5607C557.693 29.8637 556.072 28.6213 553.95 27.8334C551.86 27.0152 549.329 26.6061 546.36 26.6061H537.45V99.5152H512.178ZM566.723 56.788L589.996 99.5152H562.541L539.814 56.788H566.723Z" fill="white"/>
<path d="M643.809 6.42432H669.081V66.0607C669.081 73.1516 667.384 79.288 663.99 84.4698C660.627 89.6213 655.93 93.6061 649.9 96.4243C643.869 99.2122 636.869 100.606 628.9 100.606C620.869 100.606 613.839 99.2122 607.809 96.4243C601.778 93.6061 597.081 89.6213 593.718 84.4698C590.384 79.288 588.718 73.1516 588.718 66.0607V6.42432H613.99V63.8789C613.99 66.7577 614.627 69.3334 615.9 71.6061C617.172 73.8486 618.93 75.6061 621.172 76.8789C623.445 78.1516 626.021 78.788 628.9 78.788C631.809 78.788 634.384 78.1516 636.627 76.8789C638.869 75.6061 640.627 73.8486 641.9 71.6061C643.172 69.3334 643.809 66.7577 643.809 63.8789V6.42432Z" fill="white"/>
<path d="M752.678 6.42432V99.5152H731.587L697.951 50.6061H697.405V99.5152H672.133V6.42432H693.587L726.678 55.1516H727.405V6.42432H752.678Z" fill="white"/>
<path d="M791.491 99.5152H755.673V6.42432H791.127C800.703 6.42432 808.976 8.28795 815.945 12.0152C822.945 15.7122 828.339 21.0455 832.127 28.0152C835.945 34.9546 837.855 43.2728 837.855 52.9698C837.855 62.6667 835.961 71.0001 832.173 77.9698C828.385 84.9092 823.021 90.2425 816.082 93.9698C809.142 97.6667 800.945 99.5152 791.491 99.5152ZM780.945 78.0607H790.582C795.188 78.0607 799.112 77.3183 802.355 75.8334C805.627 74.3486 808.112 71.788 809.809 68.1516C811.536 64.5152 812.4 59.4546 812.4 52.9698C812.4 46.4849 811.521 41.4243 809.764 37.788C808.036 34.1516 805.491 31.591 802.127 30.1061C798.794 28.6213 794.703 27.8789 789.855 27.8789H780.945V78.0607Z" fill="white"/>
<path d="M858.895 99.5152H831.622L862.349 6.42432H896.895L927.622 99.5152H900.349L879.985 32.0607H879.258L858.895 99.5152ZM853.804 62.788H905.076V81.697H853.804V62.788Z" fill="white"/>
<path d="M1010.16 41.3334H984.525C984.344 39.2122 983.859 37.288 983.071 35.5607C982.313 33.8334 981.253 32.3486 979.889 31.1061C978.556 29.8334 976.935 28.8637 975.025 28.197C973.116 27.5001 970.95 27.1516 968.525 27.1516C964.283 27.1516 960.692 28.1819 957.753 30.2425C954.844 32.3031 952.631 35.2576 951.116 39.1061C949.631 42.9546 948.889 47.5758 948.889 52.9698C948.889 58.6667 949.647 63.4395 951.162 67.288C952.707 71.1061 954.935 73.9849 957.844 75.9243C960.753 77.8334 964.253 78.788 968.344 78.788C970.677 78.788 972.768 78.5001 974.616 77.9243C976.465 77.3183 978.071 76.4546 979.435 75.3334C980.798 74.2122 981.904 72.8637 982.753 71.288C983.631 69.6819 984.222 67.8789 984.525 65.8789L1010.16 66.0607C1009.86 70.0001 1008.75 74.0152 1006.84 78.1061C1004.93 82.1667 1002.22 85.9243 998.707 89.3789C995.222 92.8031 990.904 95.5607 985.753 97.6516C980.601 99.7425 974.616 100.788 967.798 100.788C959.253 100.788 951.586 98.9546 944.798 95.288C938.041 91.6213 932.692 86.2274 928.753 79.1061C924.844 71.9849 922.889 63.2728 922.889 52.9698C922.889 42.6061 924.889 33.8789 928.889 26.788C932.889 19.6667 938.283 14.288 945.071 10.6516C951.859 6.98492 959.435 5.15159 967.798 5.15159C973.677 5.15159 979.086 5.95462 984.025 7.56068C988.965 9.16674 993.298 11.5152 997.025 14.6061C1000.75 17.6667 1003.75 21.4395 1006.03 25.9243C1008.3 30.4092 1009.68 35.5455 1010.16 41.3334Z" fill="white"/>
<path d="M413.918 103.212C409.654 106.8 403.182 103.437 403.667 97.8853L404.949 83.2366C395.986 81.7299 388.689 77.3887 383.058 70.213C377.427 63.0372 375.016 54.8336 375.823 45.6021C376.678 35.8329 380.775 27.86 388.114 21.6836C395.453 15.5071 403.994 12.8449 413.734 13.6972C415.081 13.815 415.904 12.2524 415.044 11.209L413.03 8.76219C411.164 6.49551 411.47 3.14898 413.716 1.25844C415.985 -0.650521 419.372 -0.354158 421.274 1.91969L437.393 21.1857L418.174 37.3602C415.905 39.2691 412.518 38.9728 410.616 36.6989C408.732 34.447 409.011 31.0982 411.243 29.19L413.652 27.1302C414.679 26.2518 414.14 24.5701 412.793 24.4523C406.091 23.8659 400.188 25.7202 395.085 30.0151C389.981 34.31 387.135 39.8184 386.547 46.5404C385.959 53.2623 387.805 59.1812 392.085 64.2971C396.365 69.4129 401.857 72.2641 408.559 72.8504L412.395 73.186C414.719 73.3893 416.437 75.4377 416.234 77.7613C415.906 81.5124 420.28 83.7851 423.161 81.3606L428.961 76.4794C430.231 75.41 431.875 74.8903 433.53 75.0351L446.093 76.1342C452.796 76.7206 458.698 74.8664 463.802 70.5715C468.905 66.2766 471.751 60.7681 472.339 54.0462C472.927 47.3242 471.081 41.4053 466.801 36.2895C463.707 32.5913 459.98 30.0766 455.621 28.7454C452.769 27.8747 450.538 25.3285 450.798 22.3585C451.058 19.3886 453.692 17.1451 456.598 17.8124C463.949 19.5004 470.12 23.3279 475.112 29.2949C481.268 36.652 483.918 45.2151 483.063 54.9844C482.208 64.7536 478.111 72.7265 470.772 78.903C463.433 85.0795 454.893 87.7416 445.152 86.8894L434.428 85.9511L413.918 103.212Z" fill="#E8EAED"/>
<path d="M413.918 103.212C409.654 106.8 403.182 103.437 403.667 97.8853L404.949 83.2366C395.986 81.7299 388.689 77.3887 383.058 70.213C377.427 63.0372 375.016 54.8336 375.823 45.6021C376.678 35.8329 380.775 27.86 388.114 21.6836C395.453 15.5071 403.994 12.8449 413.734 13.6972C415.081 13.815 415.904 12.2524 415.044 11.209L413.03 8.76219C411.164 6.49551 411.47 3.14898 413.716 1.25844C415.985 -0.650521 419.372 -0.354158 421.274 1.91969L437.393 21.1857L418.174 37.3602C415.905 39.2691 412.518 38.9728 410.616 36.6989C408.732 34.447 409.011 31.0982 411.243 29.19L413.652 27.1302C414.679 26.2518 414.14 24.5701 412.793 24.4523C406.091 23.8659 400.188 25.7202 395.085 30.0151C389.981 34.31 387.135 39.8184 386.547 46.5404C385.959 53.2623 387.805 59.1812 392.085 64.2971C396.365 69.4129 401.857 72.2641 408.559 72.8504L412.395 73.186C414.719 73.3893 416.437 75.4377 416.234 77.7613C415.906 81.5124 420.28 83.7851 423.161 81.3606L428.961 76.4794C430.231 75.41 431.875 74.8903 433.53 75.0351L446.093 76.1342C452.796 76.7206 458.698 74.8664 463.802 70.5715C468.905 66.2766 471.751 60.7681 472.339 54.0462C472.927 47.3242 471.081 41.4053 466.801 36.2895C463.707 32.5913 459.98 30.0766 455.621 28.7454C452.769 27.8747 450.538 25.3285 450.798 22.3585C451.058 19.3886 453.692 17.1451 456.598 17.8124C463.949 19.5004 470.12 23.3279 475.112 29.2949C481.268 36.652 483.918 45.2151 483.063 54.9844C482.208 64.7536 478.111 72.7265 470.772 78.903C463.433 85.0795 454.893 87.7416 445.152 86.8894L434.428 85.9511L413.918 103.212Z" fill="#E8EAED"/>
<defs>
<linearGradient id="paint0_linear_20_90" x1="0" y1="158.311" x2="1010.16" y2="158.311" gradientUnits="userSpaceOnUse">
<stop offset="0.0536578" stop-color="#4D34FF"/>
<stop offset="0.515064" stop-color="#D68AEE"/>
<stop offset="1" stop-color="#815AEB"/>
</linearGradient>
<linearGradient id="paint1_linear_20_90" x1="0" y1="158.311" x2="1010.16" y2="158.311" gradientUnits="userSpaceOnUse">
<stop offset="0.0536578" stop-color="#4D34FF"/>
<stop offset="0.515064" stop-color="#D68AEE"/>
<stop offset="1" stop-color="#815AEB"/>
</linearGradient>
<linearGradient id="paint2_linear_20_90" x1="0" y1="158.311" x2="1010.16" y2="158.311" gradientUnits="userSpaceOnUse">
<stop offset="0.0536578" stop-color="#4D34FF"/>
<stop offset="0.515064" stop-color="#D68AEE"/>
<stop offset="1" stop-color="#815AEB"/>
</linearGradient>
<linearGradient id="paint3_linear_20_90" x1="0" y1="158.311" x2="1010.16" y2="158.311" gradientUnits="userSpaceOnUse">
<stop offset="0.0536578" stop-color="#4D34FF"/>
<stop offset="0.515064" stop-color="#D68AEE"/>
<stop offset="1" stop-color="#815AEB"/>
</linearGradient>
<linearGradient id="paint4_linear_20_90" x1="0" y1="158.311" x2="1010.16" y2="158.311" gradientUnits="userSpaceOnUse">
<stop offset="0.0536578" stop-color="#4D34FF"/>
<stop offset="0.515064" stop-color="#D68AEE"/>
<stop offset="1" stop-color="#815AEB"/>
</linearGradient>
<linearGradient id="paint5_linear_20_90" x1="0" y1="158.311" x2="1010.16" y2="158.311" gradientUnits="userSpaceOnUse">
<stop offset="0.0536578" stop-color="#4D34FF"/>
<stop offset="0.515064" stop-color="#D68AEE"/>
<stop offset="1" stop-color="#815AEB"/>
</linearGradient>
<linearGradient id="paint6_linear_20_90" x1="0" y1="158.311" x2="1010.16" y2="158.311" gradientUnits="userSpaceOnUse">
<stop offset="0.0536578" stop-color="#4D34FF"/>
<stop offset="0.515064" stop-color="#D68AEE"/>
<stop offset="1" stop-color="#815AEB"/>
</linearGradient>
</defs>
</svg>
